<svg width="150" height="150" viewBox="0 0 150 150" fill="none" xmlns="http://www.w3.org/2000/svg">
<g clip-path="url(#clip0_627_1397)">
<g clip-path="url(#clip1_627_1397)">
<path d="M5.07035 122.091C1.27061 122.978 -0.395525 121.468 0.479495 117.033C16.5895 102.937 32.2199 89.4279 48.234 75.5714C31.8604 60.5522 16.0381 46.0245 0.203804 31.4848C-0.551351 28.3323 0.815119 27.0977 3.91964 27.1456C8.70229 27.2295 13.4849 27.1576 18.2796 27.1576C60.1487 27.1576 102.03 27.1456 143.899 27.1936C146.656 27.1936 150.396 26.1028 149.58 31.8084C133.483 46.6717 117.912 60.8399 101.91 75.4156C107.376 80.2581 111.919 84.4175 116.593 88.421C127.621 97.8904 138.709 107.288 149.784 116.709C150.336 119.886 150.276 122.619 145.205 121.876C128.712 107.695 112.878 93.9348 96.9474 80.0903C91.4096 85.1606 86.4472 89.7395 81.4488 94.2944C76.786 98.5496 73.1301 98.5017 68.4554 94.2105C63.3731 89.5477 58.2788 84.8969 52.9567 80.0184C36.6909 94.3064 20.8806 108.199 5.07035 122.079V122.091Z" fill="#207EFE"/>
<path d="M5.59766 122.187C20.8686 108.21 36.6788 94.318 52.9446 80.03C58.2667 84.8966 63.361 89.5474 68.4433 94.2221C73.118 98.5133 76.7739 98.5493 81.4367 94.306C86.4351 89.7511 91.3976 85.1843 96.9354 80.1019C112.854 93.9345 128.7 107.695 144.714 121.803C98.6375 122.187 52.3813 122.235 5.59766 122.199V122.187Z" fill="#002978"/>
<path d="M0.119469 32.0239C16.0257 46.0123 31.8599 60.54 48.2216 75.5712C32.2195 89.4276 16.589 102.937 0.550986 116.565C0.119469 88.6365 0.0715232 60.5999 0.119469 32.0239Z" fill="#002978"/>
<path d="M149.88 116.122C138.708 107.288 127.621 97.8903 116.581 88.4209C111.906 84.4174 107.363 80.2581 101.897 75.4155C117.9 60.8518 133.47 46.6717 149.412 32.3118C149.856 59.9288 149.916 87.7377 149.868 116.122H149.88Z" fill="#002978"/>
</g>
</g>
<defs>
<clipPath id="clip0_627_1397">
<rect width="150" height="150" fill="white"/>
</clipPath>
<clipPath id="clip1_627_1397">
<rect width="150" height="95.2214" fill="white" transform="translate(0 27.1094)"/>
</clipPath>
</defs>
</svg>
