<svg fill="currentColor" viewBox="0 0 18 14" xmlns="http://www.w3.org/2000/svg">
  <path d="m17.821 3.4001s-0.1758-1.241-0.7172-1.7859c-0.6855-0.71719-1.4519-0.7207-1.8035-0.76289-2.5172-0.18281-6.2965-0.18281-6.2965-0.18281h-0.00704s-3.7793 0-6.2965 0.18281c-0.35156 0.042188-1.118 0.045704-1.8035 0.76289-0.54141 0.54492-0.71367 1.7859-0.71367 1.7859s-0.18281 1.459-0.18281 2.9144v1.3641c0 1.4555 0.1793 2.9145 0.1793 2.9145s0.17578 1.241 0.71367 1.7859c0.68555 0.7172 1.5856 0.6926 1.9863 0.7699 1.4414 0.1371 6.1207 0.1793 6.1207 0.1793s3.7828-7e-3 6.3-0.1863c0.3516-0.0422 1.118-0.0457 1.8035-0.7629 0.5414-0.5449 0.7172-1.7859 0.7172-1.7859s0.1793-1.4555 0.1793-2.9145v-1.3641c0-1.4555-0.1793-2.9144-0.1793-2.9144zm-10.68 5.9344v-5.059l4.8621 2.5383-4.8621 2.5207z"></path>
</svg>
