<svg width="90px" height="78px" viewBox="0 0 90 78" version="1.1" xmlns="http://www.w3.org/2000/svg">
  <g stroke="none" stroke-width="1" fill="none" fill-rule="evenodd">
    <g transform="translate(0.000000, -1.000000)" fill="currentColor" fill-rule="nonzero">
      <g transform="translate(0.000000, 0.637820)">
        <path d="M2.0106173,0.36219 C0.9060173,0.36219 0.0106173,1.25762 0.0106173,2.36219 C0.0106173,3.46676 0.9060173,4.36219 2.0106173,4.36219 L14.666818,4.36219 C19.778518,17.00142 24.793718,29.66582 29.854418,42.331 L25.166818,53.5809 C24.653118,54.7921 25.695018,56.3638 27.0106173,56.3623738 L77.0106173,56.3623738 C78.067217,56.3772 79.039117,55.4189 79.039117,54.36219 C79.039117,53.3054 78.067217,52.3472 77.0106173,52.36219 L30.0106173,52.36219 L33.385617,44.2372 L82.166817,40.331 C83.000817,40.262 83.754717,39.6139 83.948117,38.7997 L89.948117,12.79969 C90.208217,11.63897 89.200117,10.37069 88.0106173,10.36219 L21.354418,10.36219 L17.854418,1.61219 C17.559018,0.88216 16.798118,0.36628 16.0106173,0.36219 L2.0106173,0.36219 Z M22.948118,14.36219 L85.510617,14.36219 L80.385617,36.48717 L33.323117,40.2372 L22.948118,14.36219 Z M37.010618,60.3622 C32.063818,60.3622 28.010618,64.4153 28.010618,69.3622 C28.010618,74.3091 32.063818,78.3622 37.010618,78.3622 C41.957517,78.3622 46.010618,74.3091 46.010618,69.3622 C46.010618,64.4153 41.957517,60.3622 37.010618,60.3622 Z M67.010617,60.3622 C62.063717,60.3622 58.010617,64.4153 58.010617,69.3622 C58.010617,74.3091 62.063717,78.3622 67.010617,78.3622 C71.957417,78.3622 76.010617,74.3091 76.010617,69.3622 C76.010617,64.4153 71.957417,60.3622 67.010617,60.3622 Z M37.010618,64.3622 C39.795717,64.3622 42.010618,66.5771 42.010618,69.3622 C42.010618,72.1473 39.795717,74.3622 37.010618,74.3622 C34.225617,74.3622 32.010618,72.1473 32.010618,69.3622 C32.010618,66.5771 34.225617,64.3622 37.010618,64.3622 Z M67.010617,64.3622 C69.795617,64.3622 72.010617,66.5771 72.010617,69.3622 C72.010617,72.1473 69.795617,74.3622 67.010617,74.3622 C64.225517,74.3622 62.010617,72.1473 62.010617,69.3622 C62.010617,66.5771 64.225517,64.3622 67.010617,64.3622 Z"></path>
      </g>
    </g>
  </g>
</svg>
