<svg version="1.1" id="Layer_1" xmlns="http://www.w3.org/2000/svg" xmlns:xlink="http://www.w3.org/1999/xlink" x="0px" y="0px"
	 width="100%" viewBox="0 0 230 230" enable-background="new 0 0 230 230" xml:space="preserve">
<path fill="#FFFFFF" opacity="1.000000" stroke="none" d="
    M0,115
    C0,51.48,51.48,0,115,0
    C178.52,0,230,51.48,230,115
    C230,178.52,178.52,230,115,230
    C51.48,230,0,178.52,0,115
    Z"/>
<path fill="#012978" opacity="1.000000" stroke="none"
	d="
M127.000084,163.020020
	C119.928535,163.008362 113.295624,162.835678 106.672226,163.014664
	C104.171104,163.082260 101.418098,163.438599 99.253395,164.569565
	C92.355667,168.173279 85.680420,172.202820 77.997551,176.594757
	C77.997551,169.208374 78.137375,162.518265 77.900246,155.841522
	C77.840202,154.150879 77.059258,151.800888 75.798836,150.937744
	C41.982483,127.779831 46.029690,83.073753 82.922501,63.413837
	C110.183090,48.886871 146.145081,53.844418 166.561142,74.949196
	C191.327423,100.550949 185.805176,137.673813 154.200409,154.116028
	C145.968658,158.398575 136.398148,160.107819 127.000084,163.020020
M95.566132,94.201759
	C93.569130,94.202118 91.570526,94.151756 89.575493,94.214607
	C86.507812,94.311241 83.148354,94.381416 83.055885,98.571487
	C82.961525,102.847450 86.185371,102.946243 89.370811,102.940262
	C105.013908,102.910858 120.657097,102.929878 136.300247,102.924675
	C139.628006,102.923569 143.024811,103.278648 146.252243,102.700996
	C147.707245,102.440582 149.727142,100.366974 149.839752,98.981827
	C149.951035,97.612953 148.258270,95.628609 146.839493,94.745018
	C145.590973,93.967476 143.627625,94.222984 141.979568,94.219681
	C126.835716,94.189346 111.691795,94.202026 95.566132,94.201759
M91.167099,119.326492
	C89.692024,123.999168 91.063126,125.941658 96.235443,125.971527
	C109.846542,126.050117 123.458458,125.976723 137.069901,126.015778
	C139.996643,126.024170 142.738022,125.457352 142.823166,122.041267
	C142.919067,118.193916 139.954712,117.857460 136.871490,117.869698
	C123.260147,117.923706 109.648354,117.867203 96.037102,117.931374
	C94.612373,117.938087 93.190147,118.476631 91.167099,119.326492
z"/>
<path fill="#1D77F4" opacity="1.000000" stroke="none"
	d="
M96.057007,94.201965
	C111.691795,94.202026 126.835716,94.189346 141.979568,94.219681
	C143.627625,94.222984 145.590973,93.967476 146.839493,94.745018
	C148.258270,95.628609 149.951035,97.612953 149.839752,98.981827
	C149.727142,100.366974 147.707245,102.440582 146.252243,102.700996
	C143.024811,103.278648 139.628006,102.923569 136.300247,102.924675
	C120.657097,102.929878 105.013908,102.910858 89.370811,102.940262
	C86.185371,102.946243 82.961525,102.847450 83.055885,98.571487
	C83.148354,94.381416 86.507812,94.311241 89.575493,94.214607
	C91.570526,94.151756 93.569130,94.202118 96.057007,94.201965
z"/>
<path fill="#207DFE" opacity="1.000000" stroke="none"
	d="
M91.466934,119.047455
	C93.190147,118.476631 94.612373,117.938087 96.037102,117.931374
	C109.648354,117.867203 123.260147,117.923706 136.871490,117.869698
	C139.954712,117.857460 142.919067,118.193916 142.823166,122.041267
	C142.738022,125.457352 139.996643,126.024170 137.069901,126.015778
	C123.458458,125.976723 109.846542,126.050117 96.235443,125.971527
	C91.063126,125.941658 89.692024,123.999168 91.466934,119.047455
z"/>
</svg>
