<svg viewBox="0 0 18 18" xmlns="http://www.w3.org/2000/svg" fill="currentColor">
  <path d="m9 1.6207c2.4047 0 2.6895 0.01055 3.6352 0.05274 0.8789 0.03867 1.3535 0.18633 1.6699 0.30937 0.4183 0.16172 0.7207 0.3586 1.0336 0.67149 0.3164 0.3164 0.5097 0.61523 0.6715 1.0336 0.123 0.31641 0.2707 0.79453 0.3093 1.6699 0.0422 0.94922 0.0528 1.234 0.0528 3.6352 0 2.4047-0.0106 2.6894-0.0528 3.6351-0.0386 0.8789-0.1863 1.3535-0.3093 1.6699-0.1618 0.4184-0.3586 0.7208-0.6715 1.0336-0.3164 0.3164-0.6153 0.5098-1.0336 0.6715-0.3164 0.1231-0.7946 0.2707-1.6699 0.3094-0.9493 0.0422-1.234 0.0527-3.6352 0.0527-2.4047 0-2.6894-0.0105-3.6352-0.0527-0.8789-0.0387-1.3535-0.1863-1.6699-0.3094-0.41836-0.1617-0.7207-0.3586-1.0336-0.6715-0.31641-0.3164-0.50977-0.6152-0.67149-1.0336-0.12304-0.3164-0.2707-0.7945-0.30937-1.6699-0.04219-0.9492-0.05274-1.234-0.05274-3.6351 0-2.4047 0.01055-2.6894 0.05274-3.6352 0.03867-0.8789 0.18633-1.3535 0.30937-1.6699 0.16172-0.41836 0.3586-0.7207 0.67149-1.0336 0.3164-0.31641 0.61523-0.50977 1.0336-0.67149 0.31641-0.12304 0.79453-0.2707 1.6699-0.30937 0.94571-0.04219 1.2305-0.05274 3.6352-0.05274zm0-1.6207c-2.4434 0-2.7492 0.010547-3.709 0.052734-0.95625 0.042188-1.6137 0.19687-2.1832 0.41836-0.59414 0.23203-1.0969 0.53789-1.5961 1.0406-0.50274 0.49922-0.8086 1.002-1.0406 1.5926-0.22148 0.57304-0.37617 1.227-0.41836 2.1832-0.042188 0.96328-0.052734 1.2691-0.052734 3.7125 0 2.4434 0.010547 2.7492 0.052734 3.709 0.042188 0.9562 0.19687 1.6137 0.41836 2.1832 0.23203 0.5941 0.53789 1.0969 1.0406 1.5961 0.49922 0.4992 1.002 0.8086 1.5926 1.0371 0.57304 0.2215 1.227 0.3762 2.1832 0.4184 0.95977 0.0421 1.2656 0.0527 3.709 0.0527 2.4433 0 2.7492-0.0106 3.709-0.0527 0.9562-0.0422 1.6136-0.1969 2.1832-0.4184 0.5906-0.2285 1.0933-0.5379 1.5926-1.0371 0.4992-0.4992 0.8085-1.002 1.0371-1.5926 0.2214-0.573 0.3761-1.2269 0.4183-2.1832 0.0422-0.9598 0.0528-1.2656 0.0528-3.709 0-2.4434-0.0106-2.7492-0.0528-3.709-0.0422-0.95625-0.1969-1.6137-0.4183-2.1832-0.2215-0.59766-0.5274-1.1004-1.0301-1.5996-0.4992-0.49922-1.002-0.8086-1.5926-1.0371-0.573-0.22148-1.2269-0.37617-2.1832-0.41836-0.9633-0.045703-1.2691-0.05625-3.7125-0.05625z"></path>
  <path d="m9 4.377c-2.5523 0-4.623 2.0707-4.623 4.623 0 2.5523 2.0707 4.623 4.623 4.623 2.5523 0 4.623-2.0707 4.623-4.623 0-2.5523-2.0707-4.623-4.623-4.623zm0 7.6218c-1.6559 0-2.9988-1.3429-2.9988-2.9988 0-1.6559 1.343-2.9988 2.9988-2.9988 1.6559 0 2.9988 1.343 2.9988 2.9988 0 1.6559-1.3429 2.9988-2.9988 2.9988z"></path>
  <path d="m14.885 4.194c0 0.59766-0.4852 1.0793-1.0793 1.0793-0.5977 0-1.0793-0.48515-1.0793-1.0793 0-0.59765 0.4851-1.0793 1.0793-1.0793 0.5941 0 1.0793 0.48515 1.0793 1.0793z"></path>
</svg>
