<svg width="36" height="37" viewBox="0 0 36 37" fill="none" xmlns="http://www.w3.org/2000/svg">
  <rect y="0.119873" width="36" height="36" rx="18" fill="white"/>
  <path d="M27.6485 22.4862L24.255 22.0988C23.856 22.0519 23.4515 22.0961 23.072 22.228C22.6925 22.3599 22.3478 22.5761 22.0639 22.8603L19.6056 25.3186C15.8129 23.3897 12.7302 20.3069 10.8012 16.5142L13.2729 14.0425C13.8474 13.468 14.1279 12.6664 14.0344 11.8514L13.647 8.48465C13.5712 7.8329 13.2584 7.23177 12.7682 6.7957C12.2779 6.35964 11.6444 6.1191 10.9883 6.11987H8.67695C7.16725 6.11987 5.91139 7.37574 6.00491 8.88546C6.713 20.2951 15.838 29.4069 27.2343 30.115C28.744 30.2085 29.9999 28.9526 29.9999 27.4429V25.1316C30.0132 23.7822 28.9979 22.6466 27.6485 22.4862Z" fill="#207EFF"/>
  <path d="M24.2548 22.0988L27.6483 22.4862C28.9977 22.6466 30.013 23.7822 29.9997 25.1316V27.4429L22.0637 22.8603C22.3476 22.5761 22.6923 22.3599 23.0718 22.228C23.4513 22.0961 23.8558 22.0519 24.2548 22.0988Z" fill="#002877"/>
  <path d="M14.0342 11.8514C14.1277 12.6664 13.8472 13.468 13.2727 14.0425L8.67676 6.11987H10.9881C11.6442 6.1191 12.2777 6.35964 12.768 6.7957C13.2582 7.23177 13.571 7.8329 13.6468 8.48465L14.0342 11.8514Z" fill="#002877"/>
</svg>
