<svg fill="currentColor" viewBox="0 0 18 16" xmlns="http://www.w3.org/2000/svg">
  <path d="m5.6626 15.312c6.7908 0 10.506-5.6274 10.506-10.506 0-0.15821-0.0035-0.31993-0.0105-0.47813 0.7227-0.52267 1.3464-1.1701 1.8418-1.9118-0.6731 0.29948-1.3878 0.49507-2.1196 0.58008 0.7706-0.46187 1.3475-1.1874 1.6239-2.0422-0.7249 0.42959-1.5176 0.73263-2.3442 0.89613-0.557-0.59179-1.2934-0.98362-2.0953-1.1149-0.802-0.1313-1.6249 0.00525-2.3415 0.38853-0.7166 0.38329-1.287 0.99196-1.6229 1.7319-0.33597 0.73996-0.41882 1.57-0.23574 2.3617-1.4678-0.07365-2.9037-0.45494-4.2147-1.1192-1.311-0.6642-2.4677-1.5965-3.3953-2.7364-0.47143 0.81279-0.61569 1.7746-0.40346 2.6899 0.21223 0.91533 0.76503 1.7155 1.546 2.2379-0.58633-0.01861-1.1598-0.17648-1.6731-0.46055v0.04571c-5.26e-4 0.85296 0.29435 1.6798 0.83451 2.3399s1.2923 1.1128 2.1285 1.2812c-0.54315 0.14861-1.1132 0.17026-1.6661 0.06328 0.23596 0.73352 0.69505 1.3751 1.3132 1.8352s1.3645 0.7157 2.1349 0.7312c-1.3079 1.0274-2.9236 1.5847-4.5868 1.582-0.29496-4e-4 -0.58962-0.0185-0.88242-0.0541 1.6896 1.084 3.6552 1.6597 5.6626 1.6586z"></path>
</svg>
